<?xml version="1.0" encoding="UTF-8" standalone="no"?>
<!-- Created with Inkscape (http://www.inkscape.org/) -->

<svg
   xmlns:dc="http://purl.org/dc/elements/1.1/"
   xmlns:cc="http://creativecommons.org/ns#"
   xmlns:rdf="http://www.w3.org/1999/02/22-rdf-syntax-ns#"
   xmlns:svg="http://www.w3.org/2000/svg"
   xmlns="http://www.w3.org/2000/svg"
   xmlns:sodipodi="http://sodipodi.sourceforge.net/DTD/sodipodi-0.dtd"
   xmlns:inkscape="http://www.inkscape.org/namespaces/inkscape"
   width="64"
   height="64"
   id="svg6933"
   version="1.1"
   inkscape:version="0.91 r13725"
   viewBox="0 0 64 64"
   sodipodi:docname="grass.svg">
  <defs
     id="defs6935" />
  <sodipodi:namedview
     id="base"
     pagecolor="#ffffff"
     bordercolor="#666666"
     borderopacity="1.0"
     inkscape:pageopacity="0.0"
     inkscape:pageshadow="2"
     inkscape:zoom="5.5"
     inkscape:cx="11.181816"
     inkscape:cy="31.818182"
     inkscape:current-layer="layer1"
     showgrid="true"
     inkscape:document-units="px"
     inkscape:grid-bbox="true"
     inkscape:window-width="1920"
     inkscape:window-height="1054"
     inkscape:window-x="1080"
     inkscape:window-y="426"
     inkscape:window-maximized="1"
     fit-margin-top="0"
     fit-margin-left="0"
     fit-margin-right="0"
     fit-margin-bottom="0"
     inkscape:showpageshadow="false"
     showborder="true" />
  <metadata
     id="metadata6938">
    <rdf:RDF>
      <cc:Work
         rdf:about="">
        <dc:format>image/svg+xml</dc:format>
        <dc:type
           rdf:resource="http://purl.org/dc/dcmitype/StillImage" />
        <dc:title></dc:title>
      </cc:Work>
    </rdf:RDF>
  </metadata>
  <g
     id="layer1"
     inkscape:label="Layer 1"
     inkscape:groupmode="layer"
     transform="translate(-0.18182,-0.1818186)">
    <g
       id="grass"
       transform="translate(-527.81818,-9.8181814)">
      <path
         style="fill:#2ecc71;stroke:none"
         inkscape:connector-curvature="0"
         id="path124"
         d="m 592,22.3 -0.55,-0.6 -3,9.35 3.55,-0.75 0,12.65 -6.25,1.25 6.25,7.05 0,8.4 -2.9,2.4 2.9,1.1 0,10.85 -24.15,0 1.05,-3.2 -9.65,1.95 1.1,1.25 -32.35,0 0,-10.85 6.25,2.4 -1.6,-9.75 -4.65,3.85 0,-8.45 0.3,0.35 3.15,-9.3 -3.45,0.7 0,-12.65 6,-1.3 -6,-6.65 0,-12.35 32.35,0 5.4,6.1 2.1,-6.1 24.15,0 0,12.3 m -8.85,-0.45 -2.45,-9.5 -7,6.9 9.45,2.6 m 2.6,-8.75 1.25,6 4.55,-4.05 -5.8,-1.95 m -17.05,29.5 0.4,-6.1 -5.5,2.75 5.1,3.35 m 6.4,-15.55 5.05,3.3 0.4,-6.1 -5.45,2.8 m 3.8,18.9 3.15,-9.3 -9.65,1.95 6.5,7.35 m -7.4,21.1 0.35,-6.1 -5.5,2.75 5.15,3.35 m 8.75,-5.9 -4.3,8.85 9.8,-0.7 -5.5,-8.15 m 3.5,-3.9 0.4,-6.1 -5.5,2.7 5.1,3.4 M 547.9,18.5 l 4.55,-4.05 -5.8,-1.95 1.25,6 m -10.65,1.7 4.9,-8.5 -9.8,0 4.9,8.5 m 19,14.05 -4.6,8.7 9.85,-0.35 -5.25,-8.35 m -11.2,4.6 -8.3,-5.25 -0.35,9.85 8.65,-4.6 m -9.3,-13.65 3.55,4.95 2.6,-5.55 -6.15,0.6 m 19.25,5.1 6.1,0.35 -2.75,-5.45 -3.35,5.1 m -2.35,-8.6 -9.65,1.95 6.5,7.35 3.15,-9.3 m -1.85,51.75 3.1,-9.3 -9.65,1.95 6.55,7.35 m 10.75,-50.55 4.9,8.5 4.9,-8.5 -9.8,0 m -5.6,40.6 6.1,0.35 -2.7,-5.45 -3.4,5.1 m 1.35,-13.15 6.05,0.3 -2.75,-5.45 -3.3,5.15 m -14.85,17.2 -5.8,-1.95 1.25,6 4.55,-4.05 m -6.8,-17.6 4.05,4.55 1.95,-5.8 -6,1.25 m 30.5,-1.4 -0.3,9.85 8.65,-4.6 -8.35,-5.25 m -21.25,9.1 8.1,-5.55 -8.85,-4.25 0.75,9.8" />
      <path
         style="fill:#2abb67;stroke:none"
         inkscape:connector-curvature="0"
         id="path126"
         d="m 592,30.3 -3.55,0.75 3,-9.35 0.55,0.6 0,8 m -64,-7.95 6,6.65 -6,1.3 0,-7.95 m 40.7,20.25 -5.1,-3.35 5.5,-2.75 -0.4,6.1 m -7.15,-19.7 9.8,0 -4.9,8.5 -4.9,-8.5 m -10.75,50.55 -6.55,-7.35 9.65,-1.95 -3.1,9.3 m -8.35,-5.9 -4.55,4.05 -1.25,-6 5.8,1.95" />
      <path
         style="fill:#2cc46c;stroke:none"
         inkscape:connector-curvature="0"
         id="s"
         d="m 567.85,10 -2.1,6.1 -5.4,-6.1 7.5,0 M 528,42.95 l 3.45,-0.7 -3.15,9.3 -0.3,-0.35 0,-8.25 m 32.35,31.05 -1.1,-1.25 9.65,-1.95 -1.05,3.2 -7.5,0 M 592,51.25 585.75,44.2 592,42.95 l 0,8.3 m -6.25,-38.15 5.8,1.95 -4.55,4.05 -1.25,-6 m -2.6,8.75 -9.45,-2.6 7,-6.9 2.45,9.5 m -4.25,24.1 -6.5,-7.35 9.65,-1.95 -3.15,9.3 m -3.8,-18.9 5.45,-2.8 -0.4,6.1 -5.05,-3.3 m 5.15,34.1 5.5,8.15 -9.8,0.7 4.3,-8.85 m -8.75,5.9 -5.15,-3.35 5.5,-2.75 -0.35,6.1 m -23.6,-48.55 -1.25,-6 5.8,1.95 -4.55,4.05 m -12.15,6.7 6.15,-0.6 -2.6,5.55 -3.55,-4.95 m 9.3,13.65 -8.65,4.6 0.35,-9.85 8.3,5.25 m 11.2,-4.6 5.25,8.35 -9.85,0.35 4.6,-8.7 M 552.65,21.7 549.5,31 543,23.65 552.65,21.7 m 3.3,41.8 3.4,-5.1 2.7,5.45 -6.1,-0.35 m -20.3,-13.55 6,-1.25 -1.95,5.8 -4.05,-4.55 m 9.25,7.7 -0.75,-9.8 8.85,4.25 -8.1,5.55 m 21.25,-9.1 8.35,5.25 -8.65,4.6 0.3,-9.85" />
      <path
         style="fill:#30d475;stroke:none"
         inkscape:connector-curvature="0"
         id="path130"
         d="m 528,59.65 4.65,-3.85 1.6,9.75 -6.25,-2.4 0,-3.5 m 64,3.5 -2.9,-1.1 2.9,-2.4 0,3.5 m -8.25,-5.9 -5.1,-3.4 5.5,-2.7 -0.4,6.1 m -46.5,-37.05 -4.9,-8.5 9.8,0 -4.9,8.5 m 17.75,10.1 3.35,-5.1 2.75,5.45 -6.1,-0.35 m 2.3,20.05 3.3,-5.15 2.75,5.45 -6.05,-0.3" />
    </g>
  </g>
</svg>
